# xmcd
#
# Track frame offsets: 
#        150
#        17728
#        34280
#        38947
#        54344
#        70415
#        86507
#        105335
#        126241
#        132515
#        147470
#        162749
#        175492
#        194944
#
# Disc length: 2782 seconds
#
# Revision: 1
# Processed by: cddbd v1.5.2PL0 Copyright (c) Steve Scherf et al.
# Submitted via: ExactAudioCopyFreeDBPlugin 1.0
#
DISCID=d80adc0e
DTITLE=Henry Girls - December Moon
DYEAR=2013
DGENRE=Irish Bluegrass
TTITLE0=Sing my sister down
TTITLE1=December moon
TTITLE2=Moonstruck
TTITLE3=Rain and snow
TTITLE4=The long road
TTITLE5=Watching the detectivs
TTITLE6=Stop saying forever
TTITLE7=Sweet dreams
TTITLE8=Aisling
TTITLE9=When will I see you again
TTITLE10=Fool's gold
TTITLE11=Ol' cook pot
TTITLE12=Farewell
TTITLE13=Couldn't ask for more
EXTD=
EXTT0=
EXTT1=
EXTT2=
EXTT3=
EXTT4=
EXTT5=
EXTT6=
EXTT7=
EXTT8=
EXTT9=
EXTT10=
EXTT11=
EXTT12=
EXTT13=
PLAYORDER=
